<?xml version="1.0" standalone="no"?>
<!DOCTYPE svg PUBLIC "-//W3C//DTD SVG 20010904//EN"
 "http://www.w3.org/TR/2001/REC-SVG-20010904/DTD/svg10.dtd">
<svg version="1.0" xmlns="http://www.w3.org/2000/svg"
 width="1495.000000pt" height="242.000000pt" viewBox="0 0 1495.000000 242.000000"
 preserveAspectRatio="xMidYMid meet">

<g transform="translate(0.000000,242.000000) scale(0.100000,-0.100000)"
fill="#000000" stroke="none">
<path d="M1100 2399 c-283 -23 -524 -136 -736 -344 -169 -167 -274 -362 -330
-610 -25 -113 -25 -339 0 -460 51 -246 156 -445 325 -613 428 -425 1079 -480
1554 -131 l67 49 0 460 0 460 -220 0 -220 0 0 -329 0 -329 -47 -20 c-207 -86
-411 -80 -609 19 -365 182 -515 612 -339 974 96 197 251 330 465 397 97 30
291 32 384 4 89 -27 196 -82 276 -143 40 -30 75 -51 79 -46 5 4 59 93 121 197
l113 189 -29 24 c-229 189 -531 278 -854 252z"/>
<path d="M3080 2369 c-166 -29 -332 -115 -462 -238 -132 -125 -221 -273 -271
-449 -21 -75 -21 -94 -25 -849 l-3 -773 230 0 231 0 2 233 3 232 462 3 463 2
2 -232 3 -233 233 -3 233 -2 -4 767 c-4 827 -2 802 -57 951 -84 224 -266 420
-484 521 -123 57 -196 72 -356 76 -80 2 -170 0 -200 -6z m240 -459 c131 -21
262 -108 326 -216 59 -100 64 -134 64 -431 l0 -273 -466 0 -466 0 4 278 c4
248 7 283 25 333 60 162 203 285 358 308 84 12 83 12 155 1z"/>
<path d="M4473 1958 c3 -348 7 -434 20 -483 58 -216 181 -401 351 -528 83 -62
208 -127 284 -146 l42 -12 0 -364 0 -365 230 0 230 0 0 364 0 364 68 22 c176
56 357 195 471 363 50 74 108 205 132 298 20 77 22 118 26 497 l5 412 -230 0
c-203 0 -231 -2 -236 -16 -3 -9 -6 -184 -6 -389 1 -401 0 -406 -55 -515 -67
-130 -252 -240 -404 -240 -195 0 -373 131 -447 326 -16 44 -18 93 -22 442 l-4
392 -229 0 -230 0 4 -422z"/>
<path d="M14102 1649 c-29 -11 -37 -33 -58 -154 -28 -168 -86 -330 -170 -475
-48 -84 -54 -118 -26 -143 38 -34 76 -18 117 48 l24 40 1 -371 c0 -346 1 -372
18 -387 23 -21 51 -22 80 -1 l22 15 0 507 0 507 30 120 c36 140 49 257 31 279
-16 19 -42 25 -69 15z"/>
<path d="M14359 1646 c-19 -9 -30 -36 -61 -151 -26 -96 -56 -175 -93 -249 -59
-117 -64 -136 -39 -160 27 -28 70 -20 98 17 27 35 106 197 106 216 0 8 62 11
205 11 233 0 212 10 195 -95 -8 -48 -7 -63 5 -82 18 -27 75 -32 94 -9 13 15
41 177 41 237 0 67 -8 69 -263 69 -175 0 -227 3 -227 13 0 6 7 41 15 76 14 56
14 67 1 86 -18 28 -48 36 -77 21z"/>
<path d="M10272 1638 c-5 -7 -24 -66 -41 -131 -33 -124 -93 -293 -130 -364
-11 -23 -21 -56 -21 -72 0 -51 44 -76 90 -51 16 8 84 156 120 260 l12 35 186
-3 c103 -2 188 -5 190 -7 2 -2 -6 -46 -18 -99 -25 -107 -21 -142 15 -156 40
-15 72 3 84 47 20 75 61 266 61 283 0 9 -8 24 -18 33 -16 15 -48 17 -234 17
-118 0 -217 2 -220 5 -3 3 3 42 14 85 19 75 19 81 4 105 -12 18 -25 25 -50 25
-18 0 -38 -6 -44 -12z"/>
<path d="M7127 1582 c-10 -10 -17 -29 -17 -43 0 -53 4 -54 227 -59 l208 -5 3
-82 3 -83 -134 0 c-161 0 -189 -5 -222 -37 l-25 -25 -2 -262 -3 -261 -40 -3
c-48 -4 -75 -26 -75 -61 0 -41 15 -55 67 -60 l48 -6 5 -193 c4 -157 8 -195 20
-202 25 -16 59 -11 80 10 19 19 20 33 20 205 l0 185 315 0 315 0 0 -108 c0
-81 -4 -113 -16 -130 -19 -27 -65 -52 -97 -52 -50 0 -76 -70 -39 -103 38 -34
133 -14 194 41 62 56 80 106 86 239 l5 113 38 0 c45 0 69 21 69 59 0 37 -29
61 -73 61 l-36 0 -3 258 c-4 340 6 325 -225 330 l-153 4 0 84 0 84 199 0 c219
0 231 3 231 59 0 62 10 61 -497 61 -433 0 -461 -1 -476 -18z m421 -484 l-3
-83 -127 -3 -128 -3 0 86 0 85 130 0 131 0 -3 -82z m380 0 l-3 -83 -127 -3
-128 -3 0 86 0 85 130 0 131 0 -3 -82z m-388 -293 l0 -85 -125 0 -125 0 0 85
0 85 125 0 125 0 0 -85z m380 0 l0 -85 -125 0 -125 0 0 85 0 85 125 0 125 0 0
-85z"/>
<path d="M11196 1584 c-9 -8 -16 -27 -16 -42 0 -33 86 -253 103 -264 36 -23
97 5 97 44 0 20 -88 248 -102 265 -15 18 -63 16 -82 -3z"/>
<path d="M11533 1588 c-44 -21 -53 -63 -53 -248 0 -247 9 -260 175 -260 l95 0
0 -44 0 -44 -130 -4 c-126 -3 -130 -4 -157 -31 l-28 -27 -3 -230 c-2 -152 1
-236 8 -250 7 -14 21 -20 45 -20 63 0 65 8 65 236 l0 204 95 0 95 0 0 -74 c0
-83 4 -79 -85 -91 -74 -10 -87 -20 -83 -62 5 -58 18 -60 195 -35 189 27 180
27 188 1 10 -30 52 -43 81 -24 32 21 30 46 -7 145 -36 93 -61 118 -103 99 -26
-12 -31 -24 -27 -66 1 -17 -4 -23 -19 -23 -19 0 -21 5 -18 63 l3 62 103 3 102
3 0 -143 c0 -166 -6 -182 -74 -199 -54 -13 -73 -46 -54 -87 39 -81 222 5 245
115 4 21 8 108 8 194 0 226 -5 232 -197 237 l-128 4 0 44 0 44 103 0 c100 0
104 1 130 28 l27 28 0 203 0 203 -29 29 -29 29 -259 -1 c-160 0 -266 -4 -280
-11z m217 -153 l0 -45 -75 0 -75 0 0 45 0 45 75 0 75 0 0 -45z m270 0 l0 -45
-75 0 -75 0 0 45 0 45 75 0 75 0 0 -45z m-270 -205 l0 -40 -75 0 -75 0 0 40 0
40 75 0 75 0 0 -40z m270 0 l0 -40 -75 0 -75 0 0 40 0 40 75 0 75 0 0 -40z"/>
<path d="M12670 1552 c-57 -28 -59 -44 -59 -462 -1 -425 -1 -425 64 -425 65 0
65 1 65 418 l0 367 288 -2 287 -3 3 -379 c1 -260 6 -383 13 -393 19 -22 76
-16 93 9 23 32 24 770 1 824 -25 61 -43 64 -402 64 -283 0 -322 -2 -353 -18z"/>
<path d="M9807 1492 c-10 -10 -17 -28 -17 -40 0 -23 115 -319 132 -339 15 -18
73 -16 88 2 7 9 13 28 12 44 -1 29 -101 287 -127 327 -19 29 -65 32 -88 6z"/>
<path d="M12987 1346 c-10 -11 -16 -59 -21 -188 -14 -367 -58 -517 -197 -663
-80 -84 -131 -123 -223 -170 -33 -17 -64 -38 -70 -47 -16 -26 4 -71 37 -82 56
-20 247 100 365 230 140 154 195 344 209 721 6 158 5 175 -12 193 -21 23 -67
26 -88 6z"/>
<path d="M14524 1206 c-18 -14 -19 -33 -24 -431 l-5 -417 -28 -24 c-15 -13
-38 -24 -51 -24 -36 0 -59 -24 -59 -60 0 -46 26 -63 85 -56 57 6 110 40 146
93 l27 38 3 427 c3 419 2 428 -18 448 -24 24 -49 26 -76 6z"/>
<path d="M10397 1166 c-9 -9 -18 -59 -26 -143 -30 -332 -126 -538 -322 -689
-70 -53 -82 -84 -48 -120 12 -13 33 -24 45 -24 40 0 175 119 255 226 37 48
119 210 119 233 0 28 19 3 72 -94 32 -57 86 -140 119 -185 65 -86 168 -180
197 -180 32 0 62 29 62 61 0 24 -16 45 -83 112 -46 45 -102 111 -126 147 -45
71 -193 355 -187 361 2 2 10 64 17 136 11 124 11 134 -6 153 -21 23 -67 26
-88 6z"/>
<path d="M11151 1158 c-71 -38 -31 -118 60 -118 l29 0 0 -279 0 -279 -60 -105
c-33 -57 -60 -111 -60 -120 0 -29 13 -49 38 -58 34 -13 64 8 98 68 44 77 43
76 79 44 18 -16 59 -41 91 -57 l59 -29 345 -3 c393 -3 395 -3 395 63 0 64 -4
65 -383 65 -357 0 -362 1 -420 54 -56 50 -57 56 -62 403 -6 378 1 356 -113
361 -45 2 -81 -2 -96 -10z"/>
<path d="M14316 1025 c-8 -9 -18 -32 -21 -53 -21 -129 -62 -295 -101 -411 -27
-80 -43 -143 -40 -157 7 -26 52 -45 83 -33 44 16 145 348 178 581 5 39 3 50
-14 67 -25 25 -63 27 -85 6z"/>
<path d="M14726 1024 c-23 -22 -21 -40 24 -230 22 -93 47 -216 56 -274 20
-127 32 -150 78 -150 51 0 60 18 53 104 -13 151 -105 532 -133 553 -24 18 -59
16 -78 -3z"/>
<path d="M8422 1004 c-24 -16 -29 -53 -12 -85 10 -18 27 -19 540 -19 581 0
560 -2 560 60 0 61 8 60 -555 60 -446 0 -513 -2 -533 -16z"/>
<path d="M9916 898 c-25 -40 -159 -524 -153 -550 8 -32 44 -48 79 -36 15 5 29
17 32 26 77 254 146 507 146 530 0 52 -76 74 -104 30z"/>
<path d="M13075 785 l-26 -25 3 -238 c3 -227 4 -238 25 -268 39 -55 73 -64
239 -64 127 0 153 3 189 20 67 32 75 57 75 218 0 155 -6 172 -59 172 -48 0
-56 -21 -61 -159 l-5 -126 -130 -3 c-113 -2 -131 0 -142 15 -10 12 -13 75 -13
234 0 228 0 229 -47 243 -17 5 -29 1 -48 -19z"/>
</g>
</svg>
